<svg id="Layer_1" data-name="Layer 1" xmlns="http://www.w3.org/2000/svg" xmlns:xlink="http://www.w3.org/1999/xlink" viewBox="0 0 595.28 841.89"><defs><style>.cls-1{fill:#111543;}.cls-2{fill:#dac68a;}.cls-3{fill:url(#linear-gradient);}.cls-4{fill:url(#linear-gradient-2);}.cls-5{fill:url(#linear-gradient-3);}.cls-6{fill:url(#linear-gradient-4);}.cls-7{fill:#b5202e;}.cls-8{fill:#871722;}.cls-9{fill:url(#linear-gradient-5);}</style><linearGradient id="linear-gradient" x1="94.67" y1="386.64" x2="116.23" y2="394.72" gradientUnits="userSpaceOnUse"><stop offset="0" stop-color="#726947"/><stop offset="1" stop-color="#dac68a"/></linearGradient><linearGradient id="linear-gradient-2" x1="93.84" y1="458.02" x2="89.17" y2="463.61" xlink:href="#linear-gradient"/><linearGradient id="linear-gradient-3" x1="135.52" y1="411.53" x2="129.3" y2="418.69" xlink:href="#linear-gradient"/><linearGradient id="linear-gradient-4" x1="77.19" y1="470.71" x2="70.11" y2="454.24" xlink:href="#linear-gradient"/><linearGradient id="linear-gradient-5" x1="50.69" y1="369.2" x2="59.19" y2="372.31" xlink:href="#linear-gradient"/></defs><path class="cls-1" d="M211.9,389.93v37.78H196.07V389.93H183.29V377.57h41.32v12.36Z"/><path class="cls-1" d="M265.23,427.71,255.5,410h-4.62v17.69H235V377.57H262.1a41.85,41.85,0,0,1,4.33.22c2.21.21,8.6.78,12.22,6.81a18.13,18.13,0,0,1,2.34,9c0,4.76-1.84,9.09-5.89,11.79a20.53,20.53,0,0,1-4.4,2.06L283,427.71Zm-1.07-37.36a4.1,4.1,0,0,0-1.49-1.27,10.43,10.43,0,0,0-5.32-1h-6.47v11.65h6.61c2.91,0,6.18-.36,7.31-3.62a8.66,8.66,0,0,0,.36-2.2A6.9,6.9,0,0,0,264.16,390.35Z"/><path class="cls-1" d="M328.07,427.71l-2.2-7H308.4l-2.2,7H289.15l19.18-50.14h18l18.75,50.14Zm-10.8-35.86-5.46,17.68H322.6Z"/><path class="cls-1" d="M403.19,410.24c-.78,3.26-3.34,13.28-13.92,16.33-4,1.21-8.59,1.14-12.71,1.14H355.68V377.57h17.05c2.2,0,4.47.07,6.67.15,6.67.28,12.78.92,17.82,5.75,3.27,3.19,6.75,8.8,6.75,19A38.34,38.34,0,0,1,403.19,410.24Zm-19.74-19.53c-1.49-.92-2.7-1.42-5.9-1.42h-6V416.2h6a9.45,9.45,0,0,0,4.61-.92c5.89-2.84,5.75-11.86,5.75-12.64C388,402.21,388.13,393.76,383.45,390.71Z"/><path class="cls-1" d="M416,427.71V377.57h39.69v11H431.94V396h22.23V406.9h-22.3v9.94h26v10.87Z"/><path class="cls-1" d="M499.26,427.71,489.53,410h-4.62v17.69H469V377.57h27.12a41.85,41.85,0,0,1,4.33.22c2.2.21,8.59.78,12.22,6.81a18.13,18.13,0,0,1,2.34,9c0,4.76-1.85,9.09-5.89,11.79a20.43,20.43,0,0,1-4.41,2.06L517,427.71Zm-1.07-37.36a4.26,4.26,0,0,0-1.49-1.27,10.45,10.45,0,0,0-5.33-1h-6.46v11.65h6.61c2.91,0,6.17-.36,7.31-3.62a8.66,8.66,0,0,0,.36-2.2A6.9,6.9,0,0,0,498.19,390.35Z"/><path class="cls-1" d="M566.36,424.58c-6.47,4.76-14.92,4.62-17.05,4.62-7.31,0-14.27-1.21-20.23-5.68a25.49,25.49,0,0,1-5.33-5.4l12.14-7.74a11.56,11.56,0,0,0,2.42,3.05c2.84,2.49,8.09,3.55,11.57,3.55,4.47,0,7.6-1.35,7.6-3.83a2.89,2.89,0,0,0-.36-1.21,3.62,3.62,0,0,0-2.41-1.85c-1.78-.63-5-1.06-9.44-2-6.89-1.35-10.58-3.06-13-5.19a13.07,13.07,0,0,1-4.33-10.15,15.34,15.34,0,0,1,1.85-7.6c5.11-9.37,18.39-9.23,20.3-9.23,2.56,0,11.58.14,18.75,5.4a28.78,28.78,0,0,1,3.83,3.48l-10,8.3a9.26,9.26,0,0,0-1.42-1.63c-2.91-2.7-8-3.48-11.71-3.48a10.49,10.49,0,0,0-3.77.64,3.16,3.16,0,0,0-2,2.63,2.9,2.9,0,0,0,1.28,2.27,20,20,0,0,0,5.61,1.56,71.48,71.48,0,0,1,11.43,2.56c3.13,1,10.87,3.76,10.87,13.77A15.94,15.94,0,0,1,566.36,424.58Z"/><path class="cls-1" d="M188.7,449.86h-2.36v3.63h-1.59V442.38H189c3.1,0,4.78,1.21,4.78,3.57C193.75,448.57,191.8,449.86,188.7,449.86Zm.21-6.14h-2.57v4.83h2.41c2.08,0,3.38-.82,3.38-2.52C192.13,444.53,191.08,443.72,188.91,443.72Z"/><path class="cls-1" d="M196.6,453.49V442.38h8.88v1.32h-7.31v3.46h6.52v1.28h-6.52v3.73h7.41v1.32Z"/><path class="cls-1" d="M217,453.49l-2.61-2.86a3,3,0,0,0-2.61-1.22h-1.69v4.08h-1.57V442.38h4.83c3,0,4.45,1.23,4.45,3.19,0,2.11-1.69,3.05-3.53,3.43a3.94,3.94,0,0,1,1.72,1.3l3,3.16v0Zm-3.71-9.8h-3.2v4.45h2.42c2.19,0,3.67-.9,3.67-2.41C216.17,444.49,215.3,443.69,213.28,443.69Z"/><path class="cls-1" d="M226.33,443.81v9.68h-1.59v-9.68h-4.52v-1.43h10.63v1.43Z"/><path class="cls-1" d="M238.24,453.68c-3,0-5-1.81-5-5.09v-6.21h1.59v6.22c0,2.43,1.41,3.73,3.39,3.73s3.4-1.3,3.4-3.68v-6.27h1.57v6.22C243.24,451.87,241.25,453.68,238.24,453.68Z"/><path class="cls-1" d="M252,453.49h-5.31V442.38h5.22c2.68,0,3.88,1.1,3.88,2.64s-1.33,2.39-2.82,2.71c1.95.33,3.25,1.08,3.25,2.79C256.22,452.39,254.6,453.49,252,453.49Zm-.22-9.84h-3.54v3.56h2.7c1.89,0,3.19-.7,3.19-2C254.13,444.29,253.4,443.65,251.78,443.65Zm-.79,4.7h-2.75v3.88H252c1.54,0,2.57-.68,2.57-1.85S253.24,448.35,251,448.35Z"/><path class="cls-1" d="M264,453.68c-3,0-4.95-1.81-4.95-5.09v-6.21h1.59v6.22c0,2.43,1.41,3.73,3.39,3.73s3.4-1.3,3.4-3.68v-6.27H269v6.22C269,451.87,267,453.68,264,453.68Z"/><path class="cls-1" d="M280.66,453.49v-5H274v5h-1.58V442.38H274v4.68h6.64v-4.68h1.58v11.11Z"/><path class="cls-1" d="M290.06,442.23h1.77l5.11,11.26h-1.71L294.1,451h-6.36l-1.13,2.54h-1.68Zm-1.73,7.42h5.18l-2.58-5.82Z"/><path class="cls-1" d="M308,453.49l-6.77-8.74v8.74h-1.56V442.38h1.71l6.71,8.63v-8.63h1.56v11.11Z"/><path class="cls-1" d="M327,453.49l-2.62-2.86a3,3,0,0,0-2.6-1.22H320v4.08h-1.57V442.38h4.84c3,0,4.44,1.23,4.44,3.19,0,2.11-1.68,3.05-3.52,3.43a3.91,3.91,0,0,1,1.71,1.3l3,3.16v0Zm-3.72-9.8H320v4.45h2.43c2.19,0,3.66-.9,3.66-2.41C326.13,444.49,325.26,443.69,323.24,443.69Z"/><path class="cls-1" d="M335.12,442.23h1.78l5.1,11.26h-1.71L339.17,451H332.8l-1.12,2.54H330Zm-1.73,7.42h5.19L336,443.83Z"/><path class="cls-1" d="M352.56,453.49l-5.91-5.22h-.37v5.22H344.7V442.38h1.58v4.92h.38l5.78-4.92h2.11v0l-6.36,5.38,6.5,5.69v0Z"/><path class="cls-1" d="M361.14,442.23h1.78l5.1,11.26h-1.71L365.19,451h-6.37l-1.12,2.54H356Zm-1.73,7.42h5.19L362,443.83Z"/><path class="cls-1" d="M379,453.49l-6.77-8.74v8.74h-1.55V442.38h1.71l6.71,8.63v-8.63h1.55v11.11Z"/><path class="cls-1" d="M393.11,453.49h-3.56V442.38h3.62c3.9,0,6.63,1.89,6.63,5.54S397.06,453.49,393.11,453.49Zm.09-9.69h-2.06v8.28h2.08c3,0,5-1.46,5-4.13S396.25,443.8,393.2,443.8Z"/><path class="cls-1" d="M406.59,442.23h1.77l5.11,11.26h-1.71L410.63,451h-6.36l-1.13,2.54h-1.68Zm-1.73,7.42H410l-2.58-5.82Z"/><path class="cls-1" d="M421.19,453.65c-3.68,0-6.08-2.21-6.08-5.7s2.54-5.74,6.17-5.74a9.65,9.65,0,0,1,4.11.94l-.5,1.33a8.29,8.29,0,0,0-3.65-.89,4.37,4.37,0,1,0,0,8.74,7.42,7.42,0,0,0,3-.65v-2.87h-3.5v-1.22h5v5A10.46,10.46,0,0,1,421.19,453.65Z"/><path class="cls-1" d="M433.4,442.23h1.77l5.11,11.26h-1.71L437.44,451h-6.36L430,453.49h-1.69Zm-1.73,7.42h5.19l-2.59-5.82Z"/><path class="cls-1" d="M451.3,453.49l-6.77-8.74v8.74H443V442.38h1.72L451.4,451v-8.63H453v11.11Z"/><path class="cls-1" d="M462,453.65c-3.68,0-6.08-2.21-6.08-5.7s2.54-5.74,6.17-5.74a9.68,9.68,0,0,1,4.11.94l-.51,1.33a8.22,8.22,0,0,0-3.65-.89,4.37,4.37,0,1,0,.05,8.74,7.46,7.46,0,0,0,3-.65v-2.87h-3.51v-1.22h5v5A10.41,10.41,0,0,1,462,453.65Z"/><path class="cls-1" d="M479.68,453.66a11.36,11.36,0,0,1-5.14-1.19l.51-1.3a10,10,0,0,0,4.74,1.18c2,0,3.07-.77,3.07-1.88s-.75-1.52-3.21-2c-3.22-.54-4.47-1.27-4.47-3.15s1.7-3.14,4.34-3.14a10.69,10.69,0,0,1,4.32.9l-.49,1.3a9.58,9.58,0,0,0-4-.9c-1.68,0-2.6.73-2.6,1.66s.66,1.45,3.16,1.87c3.33.56,4.53,1.34,4.53,3.26C484.44,452.43,482.57,453.66,479.68,453.66Z"/><path class="cls-1" d="M487.56,453.49V442.38h8.88v1.32h-7.31v3.46h6.52v1.28h-6.52v3.73h7.41v1.32Z"/><path class="cls-1" d="M508,453.49l-2.62-2.86a3,3,0,0,0-2.6-1.22H501v4.08h-1.57V442.38h4.84c3,0,4.44,1.23,4.44,3.19,0,2.11-1.68,3.05-3.52,3.43a3.91,3.91,0,0,1,1.71,1.3l3,3.16v0Zm-3.72-9.8H501v4.45h2.43c2.19,0,3.66-.9,3.66-2.41C507.13,444.49,506.26,443.69,504.24,443.69Z"/><path class="cls-1" d="M516.12,442.23h1.78l5.1,11.26h-1.71L520.17,451H513.8l-1.12,2.54H511Zm-1.73,7.42h5.19L517,443.83Z"/><path class="cls-1" d="M534,453.49l-6.77-8.74v8.74H525.7V442.38h1.71l6.71,8.63v-8.63h1.55v11.11Z"/><path class="cls-1" d="M544.35,443.81v9.68h-1.59v-9.68h-4.52v-1.43h10.63v1.43Z"/><path class="cls-1" d="M554.24,442.23H556l5.1,11.26h-1.71L558.28,451h-6.36l-1.12,2.54h-1.68Zm-1.73,7.42h5.19l-2.59-5.82Z"/><path class="cls-1" d="M568,453.68c-3,0-5-1.81-5-5.09v-6.21h1.59v6.22c0,2.43,1.41,3.73,3.39,3.73s3.4-1.3,3.4-3.68v-6.27H573v6.22C573,451.87,571,453.68,568,453.68Z"/><path class="cls-1" d="M140.5,391.06a14.24,14.24,0,0,0-7.48,2.11l-33.34-13a10.72,10.72,0,0,0-6.16-6.59,10.93,10.93,0,0,0-7.76-11,10.91,10.91,0,0,0-8.62,1.05,10.94,10.94,0,0,0-4.72,5.7l-16-6.31a14.36,14.36,0,1,0-18.72,19.22L65.3,466.42a14.36,14.36,0,1,0,26.91,7,14.22,14.22,0,0,0-.11-1.73l6.43-7.18a10.7,10.7,0,0,0,7.66-4.21,10.46,10.46,0,0,0,1.86-4,11.26,11.26,0,0,0,3.69-3.15,11.44,11.44,0,0,0,2.14-5.08,10.5,10.5,0,0,0,4.39-5.63l20.4-22.78a13.83,13.83,0,0,0,1.83.12,14.36,14.36,0,1,0,0-28.72Z"/><polygon class="cls-2" points="73.89 454.36 71.28 450.65 73.31 456.83 74.04 459.06 74.04 459.06 74.86 461.59 73.33 456.85 73.89 454.36"/><path class="cls-1" d="M88.22,458.35a5.83,5.83,0,0,1-3.68,3.72,5.72,5.72,0,0,1-1.91.32,5.9,5.9,0,0,1-4.86-2.55l-1.13-1.6-1.18,5.17.17.52h0l0,.07a10.07,10.07,0,0,1,2.19-.25,9.63,9.63,0,0,1,5.55,1.76l0-.05h0l7.74-8.65L88.32,455A5.82,5.82,0,0,1,88.22,458.35Z"/><path class="cls-1" d="M102.46,393.79a6.31,6.31,0,0,1,3.14.1,6.2,6.2,0,0,1,4.26,7.26l-4.5,20.28c-.39,1.73-2.18,4.41-3.8,6.27,2.69,1.73,7.63,4.89,9.84,6.33l.12.08,20.93-23.37a9.66,9.66,0,0,1-1.6-5.32,9.34,9.34,0,0,1,.15-1.67l-28.28-11.12s0,.05,0,.07Z"/><path class="cls-1" d="M67.94,425.84c.27-.31.63-.74.88-1.07A19.59,19.59,0,0,1,67.3,419l-6.64-26.48A5.56,5.56,0,0,1,66,385.62l-3.52-8.81-1.5-.59h0l-8.64-3.39h0l-.08,0a9.79,9.79,0,0,1-4.89,5l19,57.86-.53-5.87C65.72,428.48,66.75,427.26,67.94,425.84Z"/><path class="cls-2" d="M95.26,459.33a5.83,5.83,0,0,1-.85-.46l-2.22-1.42-1-.64-7.74,8.65h0l0,.05a9.63,9.63,0,0,0-5.55-1.76,10.07,10.07,0,0,0-2.19.25l0-.07h0l-.17-.52h0l-.59-1.83L74,459.06h0l-.74-2.23-2-6.18-1.79-2.53q-.3-.42-.57-.87l-2.08-6.35-.47-5.2-19-57.86a9.79,9.79,0,0,0,4.89-5l.08,0h0L61,376.22h0l1.5.59,0-.07L67,378.57h0l7.46,2.94c.08-.4.17-.78.26-1.17.27-1.21.52-2.38.77-3.49.09-.39.17-.78.26-1.16l-23-9.06a9.65,9.65,0,1,0-11.3,11.87v0h0l28.89,88v0a.19.19,0,0,0,0,.07l0,.1.11.34-.1.22,0,.06a9.65,9.65,0,1,0,17.17,6,9.43,9.43,0,0,0-.51-3.08l0,0h0l9.47-10.58A6,6,0,0,1,95.26,459.33Zm-48.2-89.6h0a3.8,3.8,0,0,1-2.59,2.94h0a3.79,3.79,0,0,1-2.93-.31h0a3.77,3.77,0,0,1,1.83-7.06,3.78,3.78,0,0,1,3.76,3.77A4,4,0,0,1,47.06,369.73ZM77.85,477.16a3.75,3.75,0,0,1-3.53-5.07h0a3.78,3.78,0,0,1,2.11-2.18h0a3.77,3.77,0,0,1,5.16,3.38v.16A3.76,3.76,0,0,1,77.85,477.16Z"/><path class="cls-2" d="M140.5,395.77a9.6,9.6,0,0,0-6.73,2.75l0,0h0l-38.2-14.94a6,6,0,0,1-.15,1.39l-.09.4a6.16,6.16,0,0,1,5.59,1.5,6.23,6.23,0,0,1,2,4.57,6.3,6.3,0,0,1-.13,1.21L131,403.75a9.34,9.34,0,0,0-.15,1.67,9.66,9.66,0,0,0,1.6,5.32l-20.93,23.37a5.87,5.87,0,0,1,.9.75A6,6,0,0,1,114,438c0,.1,0,.2,0,.3a5.91,5.91,0,0,1,0,1.83l23-25.7a9.65,9.65,0,1,0,3.46-18.66Zm0,13.42a4,4,0,0,1-.95-.13h0a3.77,3.77,0,0,1-2.2-1.58h0a3.72,3.72,0,0,1-.62-2.06,3.42,3.42,0,0,1,.1-.83h0a3.76,3.76,0,0,1,1.55-2.27h0a3.77,3.77,0,0,1,5.88,3.11A3.77,3.77,0,0,1,140.5,409.19Z"/><path class="cls-3" d="M98.44,385.45a6.19,6.19,0,0,1,4.41,6,6.3,6.3,0,0,1-.13,1.21l22.72,8.93v-6.3l-29.91-11.7a6,6,0,0,1-.15,1.39l-.09.4A6.13,6.13,0,0,1,98.44,385.45Z"/><path class="cls-4" d="M94.41,458.87l-2.22-1.42-1-.64-6,6.7,4.23,4.09,7.07-7.89a6,6,0,0,1-1.23-.38A5.83,5.83,0,0,1,94.41,458.87Z"/><path class="cls-5" d="M132.42,410.76l-9.61,10.74,4.59,3.7L137,414.45A9.62,9.62,0,0,1,132.42,410.76Z"/><path class="cls-6" d="M70.31,466.57a.19.19,0,0,0,0,.07l0,.1.1.3a9.62,9.62,0,0,1,5.17-3.12l-.17-.51h0l-.59-1.83L74,459.06h0l-.74-2.23-10-30.43-5.75,1.35,12.76,38.8Z"/><path class="cls-1" d="M84,444.88a2.4,2.4,0,0,0-.46,1.9,2.44,2.44,0,0,0,1.08,1.63c2.5,1.62,8.45,5.43,10.74,6.9l.93.59h0a2.45,2.45,0,0,0,3.29-.57,2.44,2.44,0,0,0-.56-3.49l-.06,0c-3.11-2-11.58-7.44-11.67-7.5h0l-.11-.06a2.43,2.43,0,0,0-1.22-.33A2.46,2.46,0,0,0,84,444.88Z"/><path class="cls-1" d="M106.42,400.38a2.65,2.65,0,0,0-3.92-2.85,2.61,2.61,0,0,0-1.24,1.71L99.54,407l0,.16h0a1.14,1.14,0,0,1-.09.26s0,0,0,.05l-.12.23,0,0a1.56,1.56,0,0,1-.16.2l0,0-.18.17,0,0a1.64,1.64,0,0,1-.22.14l0,0-.23.1h0l-.25.07h0l-.26,0h-.22l-.16,0h0a2,2,0,0,1-.64-.29l0,0a.48.48,0,0,1-.11-.09l0,0-.1-.09,0-.07-.06-.06,0-.08,0-.06a.25.25,0,0,1,0-.07.56.56,0,0,1,0-.08l0-.06,0-.09a.08.08,0,0,0,0-.05l0-.11a.11.11,0,0,1,0-.05l0-.12v0s0-.09,0-.13h0a1.83,1.83,0,0,1,0-.52l3.21-14.45a2.66,2.66,0,0,0-1.83-3.11,2.65,2.65,0,0,0-3.33,2l-2.45,11a1.76,1.76,0,0,1-1.72,1.38h-.1a1.36,1.36,0,0,1-.29,0A1.78,1.78,0,0,1,88.19,401l3.74-16.83a2.59,2.59,0,0,0-1.73-3.08,3.17,3.17,0,0,0-2.3.42,2.48,2.48,0,0,0-1.13,1.52l-4.09,18.42a1.77,1.77,0,0,1-3.45-.76h0c.11-.53,3.65-16.54,6-27.09a2.65,2.65,0,0,0-3.92-2.86,2.61,2.61,0,0,0-1.24,1.71c-1.9,8.56-6,26.83-8,35.89l-.48,2.18-.67,3A17.41,17.41,0,0,0,72.35,424v0A101.2,101.2,0,0,0,79,433.87a8.68,8.68,0,0,1,1.53,6.71l-.36,1.92.6.88a6,6,0,0,1,.41-.62,5.88,5.88,0,0,1,2.31-1.85,6.6,6.6,0,0,1,7-9.68,6,6,0,0,1,7.94-5.33,17.75,17.75,0,0,0,3.46-5.23Z"/><path class="cls-1" d="M70.64,428.12a14.83,14.83,0,0,0-1.26,1.64l1,10.83a11.28,11.28,0,0,0,2,5.49l8.3,11.75a2.36,2.36,0,0,0,2.72.9,2.31,2.31,0,0,0,1.48-1.49,2.37,2.37,0,0,0-.29-2.08l-8.12-11.87.63-3.36a5.15,5.15,0,0,0-.9-4c-1.77-2.41-3.94-5.43-5.51-7.89Z"/><path class="cls-1" d="M97.82,429.5h0a2.48,2.48,0,0,0-1.33-.39,2.45,2.45,0,0,0-2,1,2.42,2.42,0,0,0-.45,1.9,2.37,2.37,0,0,0,1.08,1.62c3.1,2,11.58,7.44,11.66,7.5a2.47,2.47,0,0,0,3.3-.58,2.43,2.43,0,0,0,.45-1.9,2.4,2.4,0,0,0-1.08-1.63c-3-2-11.18-7.18-11.64-7.48h0Z"/><path class="cls-1" d="M101,448.91a3.09,3.09,0,0,0,4.14-.72,3.05,3.05,0,0,0,.57-2.39,3,3,0,0,0-1.35-2c-3.57-2.32-13.31-8.55-13.4-8.61h0a3.06,3.06,0,0,0-1.67-.49,3.1,3.1,0,0,0-2.46,1.22,3.05,3.05,0,0,0-.57,2.39,3,3,0,0,0,1.35,2l1.34.87c4.16,2.68,11.83,7.59,12.06,7.74Z"/><path class="cls-1" d="M72.23,391.51c.75-3.39,1.51-6.82,2.22-10L67,378.58l4.27,10.71C71.46,389.73,71.82,390.56,72.23,391.51Z"/><path class="cls-1" d="M68,390.65l-.12-.29a2,2,0,0,0-2.69-1,2,2,0,0,0-1.11,2.32l4.3,17.15.28-1.24c.6-2.72,1.4-6.28,2.26-10.16-.43-1-1.62-3.79-2.76-6.41Z"/><path class="cls-7" d="M43.36,365.3a3.77,3.77,0,0,0-1.83,7.06h0a3.79,3.79,0,0,0,2.93.31h0a3.8,3.8,0,0,0,2.59-2.94h0a4,4,0,0,0,.06-.66,3.78,3.78,0,0,0-3.76-3.77Z"/><path class="cls-7" d="M80.38,470.63a3.68,3.68,0,0,0-3.93-.72h0a3.78,3.78,0,0,0-2.11,2.18h0a3.76,3.76,0,1,0,7.29,1.36v-.16A3.72,3.72,0,0,0,80.38,470.63Z"/><path class="cls-7" d="M140.5,401.66a3.73,3.73,0,0,0-2.12.65h0a3.76,3.76,0,0,0-1.55,2.27h0a3.42,3.42,0,0,0-.1.83,3.72,3.72,0,0,0,.62,2.06h0a3.77,3.77,0,0,0,2.2,1.58h0a4,4,0,0,0,.95.13,3.77,3.77,0,0,0,0-7.53Z"/><path class="cls-8" d="M44.65,366.59a3.72,3.72,0,0,1,1.93.54,4.19,4.19,0,0,0-.48-.63,3.73,3.73,0,0,0-2.74-1.2,3.76,3.76,0,0,0-1.94,7,3.76,3.76,0,0,1,3.23-5.7Z"/><path class="cls-8" d="M75.62,473.38h0a3.8,3.8,0,0,1,2.11-2.18h0a3.65,3.65,0,0,1,3.33.27,3.44,3.44,0,0,0-.69-.84,3.68,3.68,0,0,0-3.93-.72h0a3.78,3.78,0,0,0-2.11,2.18h0a3.74,3.74,0,0,0,1.59,4.53,3.71,3.71,0,0,1-.54-1.93A3.76,3.76,0,0,1,75.62,473.38Z"/><path class="cls-8" d="M138.12,405.88h0a3.76,3.76,0,0,1,1.55-2.28h0a3.68,3.68,0,0,1,2.11-.65,3.73,3.73,0,0,1,1.93.54,3.76,3.76,0,0,0-5.34-1.18h0a3.76,3.76,0,0,0-1.55,2.27h0a3.42,3.42,0,0,0-.1.83,3.72,3.72,0,0,0,.62,2.06h0a3.62,3.62,0,0,0,1.21,1.16,3.75,3.75,0,0,1-.54-1.93A3.42,3.42,0,0,1,138.12,405.88Z"/><path class="cls-2" d="M114.08,438.3c0-.1,0-.2,0-.3a6,6,0,0,0-1.62-3.14,5.87,5.87,0,0,0-.9-.75l-.12-.08c-2.21-1.44-7.15-4.6-9.84-6.33,1.62-1.86,3.41-4.54,3.8-6.27l4.5-20.28a6.2,6.2,0,0,0-4.26-7.26,6.31,6.31,0,0,0-3.14-.1l.24-1.09s0-.05,0-.07a6.3,6.3,0,0,0,.13-1.21,6.19,6.19,0,0,0-4.41-6,6.13,6.13,0,0,0-3.15-.1l.09-.4A6.15,6.15,0,0,0,91,377.67a6.56,6.56,0,0,0-3.08.06c.26-1.17.51-2.3.74-3.37a6.17,6.17,0,0,0-12.05-2.68l-.89,4c-.09.38-.17.77-.26,1.16-.25,1.11-.5,2.28-.77,3.49-.09.39-.18.77-.26,1.17-.71,3.17-1.47,6.6-2.22,10-.41-.95-.77-1.78-1-2.22L67,378.58h0l-4.53-1.83,0,.07L66,385.62a5.56,5.56,0,0,0-5.34,6.89L67.3,419a19.59,19.59,0,0,0,1.52,5.78c-.25.33-.61.76-.88,1.07-1.19,1.42-2.22,2.64-2.1,4l.53,5.87.47,5.2,2.08,6.35q.27.45.57.87l1.79,2.53,2.61,3.71-.56,2.49,1.54,4.74.59,1.83h0l1.18-5.17,1.13,1.6a5.9,5.9,0,0,0,4.86,2.55,5.72,5.72,0,0,0,1.91-.32,5.9,5.9,0,0,0,3.78-7.1l2.87,1.84,1,.64,2.22,1.42a5.83,5.83,0,0,0,.85.46,6,6,0,0,0,1.23.38,5.62,5.62,0,0,0,1.15.12,6,6,0,0,0,5.92-6.95,6.6,6.6,0,0,0,5.65-7.7c0-.08,0-.16,0-.25a6,6,0,0,0,3.77-2.28,6.12,6.12,0,0,0,1.1-2.52A5.91,5.91,0,0,0,114.08,438.3Zm-34-65.85a2.63,2.63,0,0,1,3.33-2,2.66,2.66,0,0,1,1.83,3.11c-2.35,10.55-5.89,26.56-6,27.09h0a1.77,1.77,0,0,0,3.45.76l4.09-18.42a2.48,2.48,0,0,1,1.13-1.52,3.17,3.17,0,0,1,2.3-.42,2.59,2.59,0,0,1,1.73,3.08L88.19,401a1.78,1.78,0,0,0,1.35,2.11,1.36,1.36,0,0,0,.29,0h.1a1.76,1.76,0,0,0,1.72-1.38l2.45-11a2.65,2.65,0,0,1,3.33-2,2.66,2.66,0,0,1,1.83,3.11l-3.21,14.45a1.83,1.83,0,0,0,0,.52h0s0,.09,0,.13v0l0,.12a.11.11,0,0,0,0,.05l0,.11a.08.08,0,0,1,0,.05l0,.09,0,.06a.56.56,0,0,0,0,.08.25.25,0,0,0,0,.07l0,.06,0,.08.06.06,0,.07.1.09,0,0a.48.48,0,0,0,.11.09l0,0a2,2,0,0,0,.64.29h0l.16,0h.22l.26,0h0l.25-.07h0l.23-.1,0,0a1.64,1.64,0,0,0,.22-.14l0,0,.18-.17,0,0a1.56,1.56,0,0,0,.16-.2l0,0,.12-.23s0,0,0-.05a1.14,1.14,0,0,0,.09-.26h0l0-.16,1.72-7.75a2.63,2.63,0,0,1,3.33-2,2.64,2.64,0,0,1,1.83,3.1l-4.51,20.29a17.75,17.75,0,0,1-3.46,5.23,6,6,0,0,0-7.94,5.33,6.59,6.59,0,0,0-7,9.68,5.88,5.88,0,0,0-2.31,1.85,6,6,0,0,0-.41.62l-.6-.88.36-1.92A8.68,8.68,0,0,0,79,433.87,101.2,101.2,0,0,1,72.36,424v0A17.41,17.41,0,0,1,71,413.53l.67-3,.48-2.18C74.12,399.28,78.18,381,80.08,372.45ZM65.19,389.34a2,2,0,0,1,2.69,1l.12.29.16.35c1.14,2.62,2.33,5.37,2.76,6.41-.86,3.88-1.66,7.44-2.26,10.16l-.28,1.24-4.3-17.15A2,2,0,0,1,65.19,389.34Zm19.68,67.9a2.31,2.31,0,0,1-1.48,1.49,2.36,2.36,0,0,1-2.72-.9l-8.3-11.75a11.28,11.28,0,0,1-2-5.49l-1-10.83a14.83,14.83,0,0,1,1.26-1.64l0-.05c1.57,2.46,3.74,5.48,5.51,7.89a5.15,5.15,0,0,1,.9,4l-.63,3.36,8.12,11.87A2.37,2.37,0,0,1,84.87,457.24Zm14.74-1.91a2.45,2.45,0,0,1-3.29.57h0l-.93-.59c-2.29-1.47-8.24-5.28-10.74-6.9a2.44,2.44,0,0,1-1.08-1.63,2.4,2.4,0,0,1,.46-1.9,2.46,2.46,0,0,1,2-1,2.43,2.43,0,0,1,1.22.33l.11.06h0c.09.06,8.56,5.48,11.67,7.5l.06,0a2.44,2.44,0,0,1,.56,3.49Zm5.55-7.14a3.09,3.09,0,0,1-4.14.72h0c-.23-.15-7.9-5.06-12.06-7.74l-1.34-.87a3,3,0,0,1-1.35-2,3.05,3.05,0,0,1,.57-2.39,3.1,3.1,0,0,1,2.46-1.22,3.06,3.06,0,0,1,1.67.49h0c.09.06,9.83,6.29,13.4,8.61a3,3,0,0,1,1.35,2A3.05,3.05,0,0,1,105.16,448.19Zm5-7.67a2.47,2.47,0,0,1-3.3.58c-.08-.06-8.56-5.48-11.66-7.5A2.37,2.37,0,0,1,94.07,432a2.42,2.42,0,0,1,.45-1.9,2.45,2.45,0,0,1,2-1,2.48,2.48,0,0,1,1.33.39h0c.46.3,8.61,5.52,11.64,7.48a2.4,2.4,0,0,1,1.08,1.63A2.43,2.43,0,0,1,110.11,440.52Z"/><path class="cls-9" d="M53,369.07a9.66,9.66,0,0,1-.74,3.73l.07,0h0L61,376.22h0l1.5.59,0-.07.15.06L66,371.88l-13.32-5.23A9.61,9.61,0,0,1,53,369.07Z"/></svg>